<svg version="1.1" viewBox="0.0 0.0 96.0 96.0" fill="none" stroke="none" stroke-linecap="square" stroke-miterlimit="10" xmlns:xlink="http://www.w3.org/1999/xlink" xmlns="http://www.w3.org/2000/svg"><clipPath id="p1.0"><path d="m0 0l96.0 0l0 96.0l-96.0 0l0 -96.0z" clip-rule="nonzero"/></clipPath><g clip-path="url(#p1.0)"><path fill="#000000" fill-opacity="0.0" d="m0 0l96.0 0l0 96.0l-96.0 0z" fill-rule="evenodd"/><path fill="#000000" fill-opacity="0.0" d="m7.969 21.49638l80.06299 0l0 53.007877l-80.06299 0z" fill-rule="evenodd"/><path fill="#ffffff" d="m14.462191 49.464657l0 -6.25q2.84375 -0.015625 4.265625 -1.671875q1.4375 -1.65625 1.4375 -7.4375q0 -4.390625 0.328125 -6.515625q0.328125 -2.125 1.578125 -3.546875q1.25 -1.4375 3.21875 -2.078125q1.984375 -0.640625 5.609375 -0.640625l1.3750019 0l0 6.21875q-3.781252 0 -4.531252 0.78125q-0.734375 0.78125 -0.78125 3.046875q-0.15625 6.25 -0.40625 8.125q-0.25 1.875 -1.15625 3.578125q-0.890625 1.703125 -3.328125 3.265625q2.3125 1.40625 3.359375 3.359375q1.0625 1.953125 1.25 5.625l0.390625 7.578125q0.234375 1.09375 1.109375 1.6562538q0.890625 0.5625 4.062502 0.5625l0 6.25l-1.3437519 0q-4.171875 0 -6.4375 -0.953125q-2.265625 -0.953125 -3.28125 -3.109375q-1.015625 -2.15625 -1.015625 -6.984379q0 -5.3125 -0.375 -6.796875q-0.359375 -1.484375 -1.40625 -2.71875q-1.03125 -1.234375 -3.921875 -1.34375zm27.649126 5.421875l0 8.59375l-7.9375 0l0 -8.59375l7.9375 0zm9.842789 0l0 8.59375l-7.9375 0l0 -8.59375l7.9375 0zm9.842789 0l0 8.59375l-7.9375 0l0 -8.59375l7.9375 0zm19.717793 -5.421875q-2.84375 0.03125 -4.28125 1.703125q-1.421875 1.65625 -1.421875 7.390625q0 4.421875 -0.3125 6.546879q-0.3125 2.125 -1.5625 3.546875q-1.25 1.4375 -3.2343826 2.078125q-1.96875 0.640625 -5.59375 0.640625l-1.3749962 0l0 -6.25q3.6093712 0 4.421871 -0.765625q0.828125 -0.7500038 0.890625 -3.0625038q0.15625 -6.671875 0.46875 -8.546875q0.328125 -1.890625 1.296875 -3.53125q0.984375 -1.640625 3.0937576 -2.875q-2.2343826 -1.453125 -3.1250076 -2.859375q-0.875 -1.40625 -1.1875 -3.0625q-0.3125 -1.65625 -0.46875 -6.140625q-0.15625 -4.484375 -0.375 -5.140625q-0.203125 -0.65625 -1.0 -1.125q-0.796875 -0.46875 -4.046871 -0.46875l0 -6.21875l1.3749962 0q4.171875 0 6.4375 0.953125q2.2656326 0.953125 3.2812576 3.109375q1.015625 2.15625 1.015625 6.984375q0 5.515625 0.40625 6.953125q0.40625 1.421875 1.421875 2.609375q1.03125 1.1875 3.875 1.28125l0 6.25z" fill-rule="nonzero"/></g></svg>