<svg version="1.1" viewBox="0.0 0.0 500.0 500.0" fill="none" stroke="none" stroke-linecap="square" stroke-miterlimit="10" xmlns:xlink="http://www.w3.org/1999/xlink" xmlns="http://www.w3.org/2000/svg"><clipPath id="p1.0"><path d="m0 0l500.0 0l0 500.0l-500.0 0l0 -500.0z" clip-rule="nonzero"/></clipPath><g clip-path="url(#p1.0)"><path fill="#000000" fill-opacity="0.0" d="m0 0l500.0 0l0 500.0l-500.0 0z" fill-rule="evenodd"/><path fill="#000000" fill-opacity="0.0" d="m-43.196823 267.0831l586.39435 0l0 53.655945l-586.39435 0z" fill-rule="evenodd"/><path fill="#ffffff" d="m78.24393 278.7794l-10.875 19.5625l0 11.25l-3.90625 0l0 -11.25l-10.890625 -19.5625l4.5625 0l8.28125 15.40625l8.5 -15.40625l4.328125 0zm17.714691 31.34375q-4.46875 0 -7.640625 -1.984375q-3.15625 -2.0 -4.828125 -5.578125q-1.65625 -3.59375 -1.65625 -8.375q0 -4.78125 1.65625 -8.359375q1.671875 -3.59375 4.828125 -5.578125q3.171875 -2.0 7.640625 -2.0q4.46875 0 7.625 2.0q3.171875 1.984375 4.828125 5.578125q1.671875 3.578125 1.671875 8.359375q0 4.78125 -1.671875 8.375q-1.65625 3.578125 -4.828125 5.578125q-3.15625 1.984375 -7.625 1.984375zm0 -3.546875q4.953125 0 7.421875 -3.328125q2.484375 -3.34375 2.484375 -9.0625q0 -5.703125 -2.484375 -9.046875q-2.46875 -3.34375 -7.421875 -3.34375q-4.953125 0 -7.4375 3.34375q-2.484375 3.34375 -2.484375 9.046875q0 5.71875 2.484375 9.0625q2.484375 3.328125 7.4375 3.328125zm35.854904 3.546875q-5.578125 0 -8.65625 -3.5625q-3.078125 -3.5625 -3.078125 -9.71875l0 -18.0625l3.890625 0l0 17.9375q0 4.515625 2.015625 7.15625q2.015625 2.625 5.828125 2.625q3.8125 0 5.8125 -2.625q2.015625 -2.640625 2.015625 -7.15625l0 -17.9375l3.90625 0l0 18.0625q0 6.15625 -3.078125 9.71875q-3.078125 3.5625 -8.65625 3.5625zm40.448975 -0.53125l-6.234375 -12.078125l-0.4375 0l-7.09375 0l0 12.078125l-3.890625 0l0 -30.8125l10.453125 0q5.53125 0 8.21875 2.328125q2.703125 2.328125 2.703125 6.796875q0 3.3125 -1.46875 5.625q-1.453125 2.296875 -4.28125 3.265625l6.734375 12.796875l-4.703125 0zm-7.15625 -15.765625q3.453125 0 5.0625 -1.34375q1.609375 -1.34375 1.609375 -4.578125q0 -2.96875 -1.609375 -4.1875q-1.609375 -1.21875 -5.109375 -1.21875l-6.5625 0l0 11.328125l6.609375 0zm41.786453 16.296875q-2.578125 0 -5.375 -0.65625q-2.78125 -0.671875 -5.25 -1.828125l0 -4.203125q2.921875 1.59375 5.421875 2.359375q2.5 0.75 4.9375 0.75q3.046875 0 4.71875 -1.375q1.6875153 -1.375 1.6875153 -3.765625q0 -1.640625 -0.93751526 -2.75q-0.921875 -1.109375 -2.34375 -1.765625q-1.40625 -0.671875 -3.796875 -1.46875q-2.875 -0.96875 -4.625 -1.84375q-1.75 -0.890625 -3.0 -2.53125q-1.234375 -1.640625 -1.234375 -4.25q0 -3.890625 2.828125 -6.21875q2.84375 -2.328125 7.625 -2.328125q4.65625 0 8.54689 2.0l0 4.0625q-4.3906403 -2.46875 -8.54689 -2.46875q-3.046875 0 -4.78125 1.21875q-1.71875 1.21875 -1.71875 3.34375q0 1.453125 0.875 2.4375q0.890625 0.96875 2.171875 1.5625q1.28125 0.59375 3.625 1.4375q2.921875 0.96875 4.78125 1.90625q1.8593903 0.921875 3.1562653 2.703125q1.3125 1.765625 1.3125 4.546875q0 2.75 -1.234375 4.8125q-1.234375 2.0625 -3.5468903 3.1875q-2.296875 1.125 -5.296875 1.125zm32.48616 0q-4.46875 0 -7.640625 -1.984375q-3.15625 -2.0 -4.828125 -5.578125q-1.65625 -3.59375 -1.65625 -8.375q0 -4.78125 1.65625 -8.359375q1.671875 -3.59375 4.828125 -5.578125q3.171875 -2.0 7.640625 -2.0q4.46875 0 7.625 2.0q3.171875 1.984375 4.828125 5.578125q1.671875 3.578125 1.671875 8.359375q0 4.78125 -1.671875 8.375q-1.65625 3.578125 -4.828125 5.578125q-3.15625 1.984375 -7.625 1.984375zm0 -3.546875q4.953125 0 7.421875 -3.328125q2.484375 -3.34375 2.484375 -9.0625q0 -5.703125 -2.484375 -9.046875q-2.46875 -3.34375 -7.421875 -3.34375q-4.953125 0 -7.4375 3.34375q-2.484375 3.34375 -2.484375 9.046875q0 5.71875 2.484375 9.0625q2.484375 3.328125 7.4375 3.328125zm28.011154 -24.078125l0 10.265625l11.15625 0l0 3.546875l-11.15625 0l0 13.28125l-3.890625 0l0 -30.8125l17.96875 0l0 3.71875l-14.078125 0zm29.356201 0.1875l-9.296875 0l0 -3.90625l22.484375 0l0 3.90625l-9.296875 0l0 26.90625l-3.890625 0l0 -26.90625zm60.81427 -3.90625l-9.203125 30.8125l-4.875 0l-7.171875 -24.21875l-7.15625 24.21875l-4.875 0l-9.203125 -30.8125l4.109375 0l7.609375 25.546875l7.578125 -25.546875l4.109375 0l7.578125 25.546875l7.609375 -25.546875l3.890625 0zm23.249023 22.671875l-14.828125 0l-3.15625 8.140625l-3.890625 0l11.859375 -30.8125l5.40625 0l11.859375 30.8125l-4.109375 0l-3.140625 -8.140625zm-1.296875 -3.328125l-6.09375 -15.9375l-6.15625 15.9375l12.25 0zm33.553345 11.46875l-6.234375 -12.078125l-0.4375 0l-7.09375 0l0 12.078125l-3.890625 0l0 -30.8125l10.453125 0q5.53125 0 8.21875 2.328125q2.703125 2.328125 2.703125 6.796875q0 3.3125 -1.46875 5.625q-1.453125 2.296875 -4.28125 3.265625l6.734375 12.796875l-4.703125 0zm-7.15625 -15.765625q3.453125 0 5.0625 -1.34375q1.609375 -1.34375 1.609375 -4.578125q0 -2.96875 -1.609375 -4.1875q-1.609375 -1.21875 -5.109375 -1.21875l-6.5625 0l0 11.328125l6.609375 0zm24.376465 -11.328125l0 9.734375l13.5 0l0 3.546875l-13.5 0l0 10.09375l14.484375 0l0 3.71875l-18.375 0l0 -30.8125l18.375 0l0 3.71875l-14.484375 0z" fill-rule="nonzero"/><path fill="#000000" fill-opacity="0.0" d="m75.676605 335.21417l348.64832 0l0 22.195679l-348.64832 0z" fill-rule="evenodd"/><path fill="#ffffff" d="m100.00842 340.0542l2.40625 0l0 10.609375l5.359375 0l0 2.125l-7.765625 0l0 -12.734375zm16.190353 12.734375l-0.234375 -1.15625q-1.3125 1.375 -3.140625 1.375q-1.4375 0 -2.34375 -0.75q-0.90625 -0.75 -0.90625 -1.96875q0 -1.59375 1.171875 -2.484375q1.1875 -0.890625 3.421875 -0.890625q0.796875 0 1.609375 0.078125l0 -0.34375q0 -0.8125 -0.46875 -1.203125q-0.453125 -0.390625 -1.4375 -0.390625q-0.96875 0 -1.8125 0.328125q-0.828125 0.3125 -1.796875 1.015625l0 -2.15625q0.84375 -0.640625 1.75 -0.921875q0.921875 -0.296875 2.03125 -0.296875q2.03125 0 3.09375 0.875q1.078125 0.859375 1.078125 2.515625l0 4.25l0.390625 2.125l-2.40625 0zm-4.21875 -2.6875q0 1.0625 1.21875 1.0625q0.6875 0 1.3125 -0.28125q0.625 -0.296875 1.265625 -0.90625l0 -1.296875l-1.765625 0q-1.046875 0 -1.546875 0.3125q-0.484375 0.296875 -0.484375 1.109375zm14.221603 -7.078125q1.453125 0 2.328125 0.859375q0.890625 0.84375 0.890625 2.234375l0 6.671875l-2.40625 0l0 -5.3125q0 -1.234375 -0.375 -1.765625q-0.375 -0.546875 -1.234375 -0.546875q-0.953125 0 -2.015625 1.0625l0 6.5625l-2.421875 0l0 -7.421875l-0.40625 -2.125l2.21875 0l0.34375 1.21875q0.796875 -0.765625 1.515625 -1.09375q0.734375 -0.34375 1.5625 -0.34375zm13.2256775 9.765625l-0.359375 -1.28125q-0.65625 0.71875 -1.53125 1.109375q-0.875 0.375 -1.8125 0.375q-1.6875 0 -2.671875 -1.3125q-0.96875 -1.328125 -0.96875 -3.59375q0 -2.390625 1.125 -3.71875q1.125 -1.34375 3.171875 -1.34375q1.3125 0 2.453125 0.5625l0 -4.59375l2.40625 0l0 11.671875l0.40625 2.125l-2.21875 0zm-4.8125 -4.734375q0 1.421875 0.4375 2.1875q0.453125 0.765625 1.3125 0.765625q1.203125 0 2.46875 -1.203125l0 -4.515625q-1.0625 -0.28125 -1.9375 -0.28125q-1.171875 0 -1.734375 0.75q-0.546875 0.734375 -0.546875 2.296875zm10.7100525 -6.25q-0.625 0 -1.0625 -0.40625q-0.4375 -0.421875 -0.4375 -1.109375q0 -0.671875 0.4375 -1.09375q0.4375 -0.421875 1.0625 -0.421875q0.625 0 1.0625 0.421875q0.4375 0.421875 0.4375 1.09375q0 0.6875 -0.4375 1.109375q-0.4375 0.40625 -1.0625 0.40625zm1.203125 1.4375l0 9.546875l-2.40625 0l0 -9.53125l2.40625 -0.015625zm8.216904 -0.21875q1.453125 0 2.328125 0.859375q0.890625 0.84375 0.890625 2.234375l0 6.671875l-2.40625 0l0 -5.3125q0 -1.234375 -0.375 -1.765625q-0.375 -0.546875 -1.234375 -0.546875q-0.953125 0 -2.015625 1.0625l0 6.5625l-2.421875 0l0 -7.421875l-0.40625 -2.125l2.21875 0l0.34375 1.21875q0.796875 -0.765625 1.515625 -1.09375q0.734375 -0.34375 1.5625 -0.34375zm15.3194275 0.21875l-0.40625 2.09375l0 7.453125q0 2.171875 -1.28125 3.3125q-1.28125 1.15625 -3.5 1.15625q-1.171875 0 -2.109375 -0.3125q-0.921875 -0.3125 -1.78125 -0.84375l0 -2.265625q1.71875 1.3125 3.703125 1.3125q2.546875 0 2.546875 -2.359375l0 -0.75q-1.125 0.625 -2.484375 0.625q-1.921875 0 -3.03125 -1.265625q-1.09375 -1.28125 -1.09375 -3.515625q0 -2.265625 1.15625 -3.5625q1.15625 -1.296875 3.15625 -1.296875q0.640625 0 1.21875 0.140625q0.59375 0.125 1.390625 0.453125l0.09375 -0.375l2.421875 0zm-5.21875 7.328125q1.15625 0 2.390625 -0.734375l0 -4.5625q-0.46875 -0.15625 -0.9375 -0.1875q-0.46875 -0.03125 -1.125 -0.03125q-1.0625 0 -1.546875 0.671875q-0.46875 0.671875 -0.46875 2.15625q0 1.40625 0.40625 2.046875q0.40625 0.640625 1.28125 0.640625zm13.107895 -10.515625l4.203125 0q2.640625 0 3.9375 1.078125q1.296875 1.0625 1.296875 3.09375q0 2.046875 -1.28125 3.1875q-1.28125 1.125 -3.734375 1.125l-2.015625 0l0 4.25l-2.40625 0l0 -12.734375zm4.21875 6.390625q1.375 0 2.015625 -0.5q0.65625 -0.5 0.65625 -1.671875q0 -1.125 -0.640625 -1.59375q-0.640625 -0.484375 -2.046875 -0.484375l-1.796875 0l0 4.25l1.8125 0zm13.435364 6.34375l-0.234375 -1.15625q-1.3125 1.375 -3.140625 1.375q-1.4375 0 -2.34375 -0.75q-0.90625 -0.75 -0.90625 -1.96875q0 -1.59375 1.171875 -2.484375q1.1875 -0.890625 3.421875 -0.890625q0.796875 0 1.609375 0.078125l0 -0.34375q0 -0.8125 -0.46875 -1.203125q-0.453125 -0.390625 -1.4375 -0.390625q-0.96875 0 -1.8125 0.328125q-0.828125 0.3125 -1.796875 1.015625l0 -2.15625q0.84375 -0.640625 1.75 -0.921875q0.921875 -0.296875 2.03125 -0.296875q2.03125 0 3.09375 0.875q1.078125 0.859375 1.078125 2.515625l0 4.25l0.390625 2.125l-2.40625 0zm-4.21875 -2.6875q0 1.0625 1.21875 1.0625q0.6875 0 1.3125 -0.28125q0.625 -0.296875 1.265625 -0.90625l0 -1.296875l-1.765625 0q-1.046875 0 -1.546875 0.3125q-0.484375 0.296875 -0.484375 1.109375zm17.830978 -6.859375l-0.40625 2.09375l0 7.453125q0 2.171875 -1.28125 3.3125q-1.28125 1.15625 -3.5 1.15625q-1.171875 0 -2.109375 -0.3125q-0.921875 -0.3125 -1.78125 -0.84375l0 -2.265625q1.71875 1.3125 3.703125 1.3125q2.546875 0 2.546875 -2.359375l0 -0.75q-1.125 0.625 -2.484375 0.625q-1.921875 0 -3.03125 -1.265625q-1.09375 -1.28125 -1.09375 -3.515625q0 -2.265625 1.15625 -3.5625q1.15625 -1.296875 3.15625 -1.296875q0.640625 0 1.21875 0.140625q0.59375 0.125 1.390625 0.453125l0.09375 -0.375l2.421875 0zm-5.21875 7.328125q1.15625 0 2.390625 -0.734375l0 -4.5625q-0.46875 -0.15625 -0.9375 -0.1875q-0.46875 -0.03125 -1.125 -0.03125q-1.0625 0 -1.546875 0.671875q-0.46875 0.671875 -0.46875 2.15625q0 1.40625 0.40625 2.046875q0.40625 0.640625 1.28125 0.640625zm16.156616 -1.828125l-6.640625 0q0.140625 1.09375 0.8125 1.6875q0.671875 0.578125 1.78125 0.578125q0.828125 0 1.78125 -0.296875q0.96875 -0.296875 1.796875 -0.828125l0.0625 0l0 1.953125q-0.734375 0.5625 -1.671875 0.875q-0.9375 0.296875 -1.984375 0.296875q-1.5 0 -2.625 -0.59375q-1.109375 -0.609375 -1.71875 -1.734375q-0.59375 -1.140625 -0.59375 -2.671875q0 -1.46875 0.578125 -2.609375q0.578125 -1.140625 1.609375 -1.75q1.046875 -0.625 2.421875 -0.625q1.328125 0 2.328125 0.609375q1.0 0.59375 1.53125 1.734375q0.53125 1.125 0.53125 2.640625l0 0.734375zm-4.390625 -3.78125q-0.859375 0 -1.4375 0.5625q-0.578125 0.5625 -0.78125 1.578125l4.125 0q-0.15625 -1.046875 -0.625 -1.59375q-0.46875 -0.546875 -1.28125 -0.546875zm9.712555 8.046875q-0.953125 0 -1.875 -0.265625q-0.90625 -0.265625 -1.703125 -0.765625l0 -2.28125q0.875 0.65625 1.65625 0.96875q0.796875 0.3125 1.703125 0.3125q0.9375 0 1.375 -0.234375q0.453125 -0.234375 0.453125 -0.734375q0 -0.46875 -0.4375 -0.703125q-0.421875 -0.234375 -1.34375 -0.453125q-1.03125 -0.25 -1.671875 -0.515625q-0.640625 -0.265625 -1.109375 -0.859375q-0.46875 -0.609375 -0.46875 -1.640625q0 -1.28125 1.046875 -2.046875q1.0625 -0.765625 2.828125 -0.765625q0.875 0 1.59375 0.1875q0.734375 0.1875 1.5 0.625l0 2.234375q-0.78125 -0.546875 -1.46875 -0.78125q-0.671875 -0.234375 -1.4375 -0.234375q-0.84375 0 -1.296875 0.21875q-0.453125 0.203125 -0.453125 0.59375q0 0.40625 0.390625 0.609375q0.390625 0.1875 1.25 0.390625q1.03125 0.21875 1.71875 0.5q0.6875 0.28125 1.171875 0.921875q0.5 0.625 0.5 1.734375q0 0.859375 -0.5 1.546875q-0.484375 0.6875 -1.390625 1.0625q-0.890625 0.375 -2.03125 0.375zm19.256012 -0.21875l-1.0625 -1.078125q-1.59375 1.296875 -3.578125 1.296875q-1.234375 0 -2.234375 -0.484375q-1.0 -0.484375 -1.5625 -1.328125q-0.546875 -0.859375 -0.546875 -1.953125q0 -2.125 2.265625 -3.703125q-0.546875 -1.09375 -0.546875 -2.203125q0 -1.609375 1.109375 -2.546875q1.109375 -0.953125 2.890625 -0.953125q0.921875 0 1.625 0.265625q0.703125 0.265625 1.4375 0.828125l0 2.21875q-0.640625 -0.609375 -1.375 -0.921875q-0.734375 -0.3125 -1.484375 -0.3125q-0.828125 0 -1.28125 0.390625q-0.453125 0.390625 -0.453125 1.09375q0 0.734375 0.46875 1.546875q0.484375 0.796875 1.4375 1.765625l1.9375 1.984375q0.59375 -0.828125 1.34375 -2.234375l0.078125 0l1.40625 1.28125q-0.671875 1.375 -1.421875 2.359375l2.640625 2.6875l-3.09375 0zm-4.5 -1.78125q1.0625 0 2.03125 -0.71875l-3.0625 -3.09375l-0.046875 -0.0625q-0.890625 0.84375 -0.890625 1.953125q0 0.921875 0.53125 1.421875q0.53125 0.5 1.4375 0.5zm20.867325 2.0q-2.09375 0 -3.609375 -0.796875q-1.5156403 -0.8125 -2.3125153 -2.296875q-0.78125 -1.5 -0.78125 -3.5q0 -1.984375 0.796875 -3.46875q0.81251526 -1.5 2.3437653 -2.296875q1.53125 -0.8125 3.671875 -0.8125q0.90625 0 1.765625 0.171875q0.875 0.171875 1.5625 0.515625l0 2.234375l-0.0625 0q-0.703125 -0.390625 -1.515625 -0.59375q-0.8125 -0.203125 -1.546875 -0.203125q-2.078125 0 -3.28125 1.15625q-1.203125 1.140625 -1.203125 3.296875q0 2.140625 1.171875 3.296875q1.171875 1.15625 3.203125 1.15625q0.796875 0 1.609375 -0.25q0.8125 -0.25 1.5625 -0.703125l0.0625 0l0 2.25q-1.453125 0.84375 -3.4375 0.84375zm13.220673 -0.21875l-0.359375 -1.25q-0.921875 0.828125 -1.640625 1.15625q-0.703125 0.3125 -1.59375 0.3125q-0.859375 0 -1.5625 -0.390625q-0.703125 -0.40625 -1.09375 -1.109375q-0.390625 -0.71875 -0.390625 -1.59375l0 -6.671875l2.40625 0l0 5.296875q0 1.15625 0.359375 1.75q0.375 0.578125 1.0625 0.578125q0.59375 0 1.09375 -0.25q0.515625 -0.265625 1.109375 -0.828125l0 -6.546875l2.421875 0l0 7.421875l0.390625 2.125l-2.203125 0zm7.9131775 0.21875q-0.953125 0 -1.875 -0.265625q-0.90625 -0.265625 -1.703125 -0.765625l0 -2.28125q0.875 0.65625 1.65625 0.96875q0.796875 0.3125 1.703125 0.3125q0.9375 0 1.375 -0.234375q0.453125 -0.234375 0.453125 -0.734375q0 -0.46875 -0.4375 -0.703125q-0.421875 -0.234375 -1.34375 -0.453125q-1.03125 -0.25 -1.671875 -0.515625q-0.640625 -0.265625 -1.109375 -0.859375q-0.46875 -0.609375 -0.46875 -1.640625q0 -1.28125 1.046875 -2.046875q1.0625 -0.765625 2.828125 -0.765625q0.875 0 1.59375 0.1875q0.734375 0.1875 1.5 0.625l0 2.234375q-0.78125 -0.546875 -1.46875 -0.78125q-0.671875 -0.234375 -1.4375 -0.234375q-0.84375 0 -1.296875 0.21875q-0.453125 0.203125 -0.453125 0.59375q0 0.40625 0.390625 0.609375q0.390625 0.1875 1.25 0.390625q1.03125 0.21875 1.71875 0.5q0.6875 0.28125 1.171875 0.921875q0.5 0.625 0.5 1.734375q0 0.859375 -0.5 1.546875q-0.484375 0.6875 -1.390625 1.0625q-0.890625 0.375 -2.03125 0.375zm9.039124 -9.765625l2.203125 0l0 1.78125l-2.203125 0l0 4.625q0 1.390625 1.0625 1.390625q0.5 0 1.15625 -0.359375l0 2.0q-0.453125 0.171875 -0.859375 0.25q-0.390625 0.078125 -0.875 0.078125q-2.890625 0 -2.890625 -3.359375l0 -4.625l-1.390625 0l0 -1.78125l1.390625 0l0 -2.5625l2.40625 -0.84375l0 3.40625zm8.881287 9.765625q-1.453125 0 -2.546875 -0.609375q-1.09375 -0.609375 -1.6875 -1.75q-0.59375 -1.140625 -0.59375 -2.640625q0 -1.5 0.59375 -2.625q0.59375 -1.140625 1.6875 -1.75q1.09375 -0.609375 2.546875 -0.609375q1.4375 0 2.53125 0.609375q1.109375 0.609375 1.703125 1.75q0.59375 1.125 0.59375 2.625q0 1.5 -0.59375 2.640625q-0.59375 1.140625 -1.703125 1.75q-1.09375 0.609375 -2.53125 0.609375zm0 -2.0q1.078125 0 1.671875 -0.765625q0.609375 -0.78125 0.609375 -2.234375q0 -1.453125 -0.609375 -2.21875q-0.59375 -0.78125 -1.671875 -0.78125q-1.078125 0 -1.6875 0.78125q-0.609375 0.765625 -0.609375 2.21875q0 1.453125 0.609375 2.234375q0.609375 0.765625 1.6875 0.765625zm18.381927 -7.984375q1.375 0 2.203125 0.859375q0.84375 0.84375 0.84375 2.234375l0 6.671875l-2.421875 0l0 -5.3125q0 -1.234375 -0.328125 -1.765625q-0.328125 -0.546875 -1.09375 -0.546875q-0.9375 0 -1.921875 1.03125l0 6.59375l-2.421875 0l0 -5.3125q0 -1.234375 -0.328125 -1.765625q-0.328125 -0.546875 -1.09375 -0.546875q-0.9375 0 -1.921875 1.03125l0 6.59375l-2.421875 0l0 -7.421875l-0.40625 -2.125l2.21875 0l0.34375 1.21875q0.734375 -0.765625 1.453125 -1.09375q0.71875 -0.34375 1.53125 -0.34375q0.921875 0 1.625 0.40625q0.703125 0.40625 1.0625 1.125q0.78125 -0.828125 1.5 -1.171875q0.71875 -0.359375 1.578125 -0.359375zm11.681671 -2.96875l4.203125 0q2.640625 0 3.9375 1.078125q1.296875 1.0625 1.296875 3.09375q0 2.046875 -1.28125 3.1875q-1.28125 1.125 -3.734375 1.125l-2.015625 0l0 4.25l-2.40625 0l0 -12.734375zm4.21875 6.390625q1.375 0 2.015625 -0.5q0.65625 -0.5 0.65625 -1.671875q0 -1.125 -0.640625 -1.59375q-0.640625 -0.484375 -2.046875 -0.484375l-1.796875 0l0 4.25l1.8125 0zm12.685364 -3.421875l0 2.375l-0.3125 0q-1.421875 0 -2.328125 0.78125l0 6.609375l-2.40625 0l0 -7.421875l-0.40625 -2.125l2.40625 0l0.25 1.265625q0.59375 -0.828125 1.078125 -1.15625q0.5 -0.328125 1.109375 -0.328125l0.609375 0zm6.459198 9.984375q-1.453125 0 -2.546875 -0.609375q-1.09375 -0.609375 -1.6875 -1.75q-0.59375 -1.140625 -0.59375 -2.640625q0 -1.5 0.59375 -2.625q0.59375 -1.140625 1.6875 -1.75q1.09375 -0.609375 2.546875 -0.609375q1.4375 0 2.53125 0.609375q1.109375 0.609375 1.703125 1.75q0.59375 1.125 0.59375 2.625q0 1.5 -0.59375 2.640625q-0.59375 1.140625 -1.703125 1.75q-1.09375 0.609375 -2.53125 0.609375zm0 -2.0q1.078125 0 1.671875 -0.765625q0.609375 -0.78125 0.609375 -2.234375q0 -1.453125 -0.609375 -2.21875q-0.59375 -0.78125 -1.671875 -0.78125q-1.078125 0 -1.6875 0.78125q-0.609375 0.765625 -0.609375 2.21875q0 1.453125 0.609375 2.234375q0.609375 0.765625 1.6875 0.765625zm8.5225525 -9.203125q-0.625 0 -1.0625 -0.40625q-0.4375 -0.421875 -0.4375 -1.109375q0 -0.671875 0.4375 -1.09375q0.4375 -0.421875 1.0625 -0.421875q0.625 0 1.0625 0.421875q0.4375 0.421875 0.4375 1.09375q0 0.6875 -0.4375 1.109375q-0.4375 0.40625 -1.0625 0.40625zm-2.109375 15.453125q-0.65625 0 -1.09375 -0.125q-0.4375 -0.109375 -0.828125 -0.390625l0 -2.0q0.421875 0.28125 0.828125 0.390625q0.40625 0.109375 0.875 0.109375q0.59375 0 0.859375 -0.3125q0.265625 -0.3125 0.265625 -1.046875l0 -10.640625l2.40625 0l0 10.640625q0 3.375 -3.3125 3.375zm14.623138 -8.515625l-6.640625 0q0.140625 1.09375 0.8125 1.6875q0.671875 0.578125 1.78125 0.578125q0.828125 0 1.78125 -0.296875q0.96875 -0.296875 1.796875 -0.828125l0.0625 0l0 1.953125q-0.734375 0.5625 -1.671875 0.875q-0.9375 0.296875 -1.984375 0.296875q-1.5 0 -2.625 -0.59375q-1.109375 -0.609375 -1.71875 -1.734375q-0.59375 -1.140625 -0.59375 -2.671875q0 -1.46875 0.578125 -2.609375q0.578125 -1.140625 1.609375 -1.75q1.046875 -0.625 2.421875 -0.625q1.328125 0 2.328125 0.609375q1.0 0.59375 1.53125 1.734375q0.53125 1.125 0.53125 2.640625l0 0.734375zm-4.390625 -3.78125q-0.859375 0 -1.4375 0.5625q-0.578125 0.5625 -0.78125 1.578125l4.125 0q-0.15625 -1.046875 -0.625 -1.59375q-0.46875 -0.546875 -1.28125 -0.546875zm11.306305 8.046875q-1.5 0 -2.625 -0.609375q-1.125 -0.609375 -1.734375 -1.71875q-0.59375 -1.125 -0.59375 -2.625q0 -1.5 0.609375 -2.640625q0.625 -1.15625 1.75 -1.765625q1.125 -0.625 2.59375 -0.625q1.640625 0 2.78125 0.671875l0 2.125l-0.078125 0q-0.59375 -0.375 -1.296875 -0.546875q-0.703125 -0.1875 -1.3125 -0.1875q-1.265625 0 -1.90625 0.75q-0.640625 0.75 -0.640625 2.21875q0 2.890625 2.515625 2.890625q0.65625 0 1.34375 -0.203125q0.6875 -0.21875 1.296875 -0.609375l0.078125 0l0 2.15625q-1.171875 0.71875 -2.78125 0.71875zm8.177216 -9.765625l2.203125 0l0 1.78125l-2.203125 0l0 4.625q0 1.390625 1.0625 1.390625q0.5 0 1.15625 -0.359375l0 2.0q-0.453125 0.171875 -0.859375 0.25q-0.390625 0.078125 -0.875 0.078125q-2.890625 0 -2.890625 -3.359375l0 -4.625l-1.390625 0l0 -1.78125l1.390625 0l0 -2.5625l2.40625 -0.84375l0 3.40625zm7.4281616 9.765625q-0.953125 0 -1.875 -0.265625q-0.90625 -0.265625 -1.703125 -0.765625l0 -2.28125q0.875 0.65625 1.65625 0.96875q0.796875 0.3125 1.703125 0.3125q0.9375 0 1.375 -0.234375q0.453125 -0.234375 0.453125 -0.734375q0 -0.46875 -0.4375 -0.703125q-0.421875 -0.234375 -1.34375 -0.453125q-1.03125 -0.25 -1.671875 -0.515625q-0.640625 -0.265625 -1.109375 -0.859375q-0.46875 -0.609375 -0.46875 -1.640625q0 -1.28125 1.046875 -2.046875q1.0625 -0.765625 2.828125 -0.765625q0.875 0 1.59375 0.1875q0.734375 0.1875 1.5 0.625l0 2.234375q-0.78125 -0.546875 -1.46875 -0.78125q-0.671875 -0.234375 -1.4375 -0.234375q-0.84375 0 -1.296875 0.21875q-0.453125 0.203125 -0.453125 0.59375q0 0.40625 0.390625 0.609375q0.390625 0.1875 1.25 0.390625q1.03125 0.21875 1.71875 0.5q0.6875 0.28125 1.171875 0.921875q0.5 0.625 0.5 1.734375q0 0.859375 -0.5 1.546875q-0.484375 0.6875 -1.390625 1.0625q-0.890625 0.375 -2.03125 0.375z" fill-rule="nonzero"/><path fill="#000000" fill-opacity="0.0" d="m41.41881 142.59148l417.16028 0l0 106.16612l-417.16028 0z" fill-rule="evenodd"/><path fill="#ffffff" d="m182.82133 198.61224l0 -12.515625q5.6875 -0.046875 8.546875 -3.359375q2.875 -3.3125 2.875 -14.890625q0 -8.8125 0.65625 -13.0625q0.65625 -4.25 3.15625 -7.109375q2.5 -2.875 6.453125 -4.15625q3.96875 -1.28125 11.21875 -1.28125l2.765625 0l0 12.46875q-7.5625 0 -9.046875 1.5625q-1.484375 1.5625 -1.59375 6.09375q-0.3125 12.515625 -0.8125 16.28125q-0.484375 3.75 -2.28125 7.171875q-1.796875 3.40625 -6.703125 6.546875q4.640625 2.8125 6.75 6.734375q2.109375 3.90625 2.484375 11.25l0.78125 15.1875q0.46875 2.1875 2.234375 3.296875q1.78125 1.125 8.140625 1.125l0 12.515625l-2.71875 0q-8.34375 0 -12.875 -1.90625q-4.53125 -1.890625 -6.578125 -6.21875q-2.03125 -4.328125 -2.03125 -13.984375q0 -10.640625 -0.734375 -13.609375q-0.71875 -2.96875 -2.8125 -5.4375q-2.078125 -2.484375 -7.875 -2.703125zm55.387238 10.84375l0 17.21875l-15.90625 0l0 -17.21875l15.90625 0zm19.714432 0l0 17.21875l-15.906265 0l0 -17.21875l15.906265 0zm19.714417 0l0 17.21875l-15.90625 0l0 -17.21875l15.90625 0zm39.48004 -10.84375q-5.6875 0.0625 -8.5625 3.40625q-2.859375 3.328125 -2.859375 14.796875q0 8.875 -0.625 13.125q-0.625 4.25 -3.125 7.109375q-2.5 2.875 -6.46875 4.140625q-3.96875 1.28125 -11.21875 1.28125l-2.75 0l0 -12.515625q7.234375 0 8.875 -1.515625q1.65625 -1.5 1.75 -6.140625q0.3125 -13.359375 0.96875 -17.140625q0.65625 -3.78125 2.609375 -7.0625q1.953125 -3.28125 6.1875 -5.734375q-4.484375 -2.921875 -6.265625 -5.734375q-1.765625 -2.828125 -2.40625 -6.140625q-0.625 -3.3125 -0.9375 -12.296875q-0.3125 -9.0 -0.734375 -10.296875q-0.40625 -1.3125 -2.0 -2.25q-1.59375 -0.9375 -8.109375 -0.9375l0 -12.46875l2.765625 0q8.34375 0 12.875 1.90625q4.546875 1.90625 6.578125 6.234375q2.03125 4.328125 2.03125 13.96875q0 11.0625 0.8125 13.9375q0.8125 2.859375 2.859375 5.234375q2.0625 2.375 7.75 2.578125l0 12.515625z" fill-rule="nonzero"/></g></svg>