<svg version="1.1" viewBox="0.0 0.0 500.0 500.0" fill="none" stroke="none" stroke-linecap="square" stroke-miterlimit="10" xmlns:xlink="http://www.w3.org/1999/xlink" xmlns="http://www.w3.org/2000/svg"><clipPath id="p1.0"><path d="m0 0l500.0 0l0 500.0l-500.0 0l0 -500.0z" clip-rule="nonzero"/></clipPath><g clip-path="url(#p1.0)"><path fill="#000000" fill-opacity="0.0" d="m0 0l500.0 0l0 500.0l-500.0 0z" fill-rule="evenodd"/><path fill="#000000" fill-opacity="0.0" d="m88.299 100.0l323.40158 0l0 242.3937l-323.40158 0z" fill-rule="evenodd"/><path fill="#ffffff" d="m193.906 295.59375q-11.0 0 -22.40625 -2.703125q-11.40625 -2.6875 -19.0 -7.09375l1.0 -27.203125l2.0 0l6.203125 13.0q2.796875 5.609375 6.0 9.90625q3.203125 4.296875 8.796875 6.703125q4.0 2.0 7.703125 2.703125q3.703125 0.6875 8.296875 0.6875q12.203125 0 19.296875 -6.59375q7.109375 -6.59375 7.109375 -17.0q0 -9.796875 -4.8125 -15.296875q-4.796875 -5.5 -15.390625 -10.703125l-8.203125 -3.59375q-17.203125 -7.609375 -26.90625 -17.5q-9.6875 -9.90625 -9.6875 -26.3125q0 -11.796875 6.09375 -20.390625q6.09375 -8.609375 17.0 -13.203125q10.90625 -4.59375 25.5 -4.59375q10.59375 0 20.09375 2.796875q9.5 2.796875 16.5 7.59375l-1.1875 24.0l-2.0 0l-8.203125 -15.0q-3.40625 -7.0 -6.8125 -9.890625q-3.390625 -2.90625 -7.796875 -4.109375q-2.59375 -0.796875 -4.796875 -1.09375q-2.203125 -0.296875 -5.59375 -0.296875q-10.203125 0 -17.203125 5.90625q-7.0 5.890625 -7.0 15.890625q0 10.203125 5.390625 16.296875q5.40625 6.09375 15.8125 10.90625l9.203125 4.0q19.1875 8.390625 27.59375 17.890625q8.40625 9.5 8.40625 24.5q0 17.609375 -13.3125 28.703125q-13.296875 11.09375 -37.6875 11.09375zm102.80005 0q-11.0 0 -22.40625 -2.703125q-11.40625 -2.6875 -19.000015 -7.09375l1.0000153 -27.203125l2.0 0l6.203125 13.0q2.796875 5.609375 6.0 9.90625q3.203125 4.296875 8.796875 6.703125q4.0 2.0 7.703125 2.703125q3.703125 0.6875 8.296875 0.6875q12.203125 0 19.296875 -6.59375q7.109375 -6.59375 7.109375 -17.0q0 -9.796875 -4.8125 -15.296875q-4.796875 -5.5 -15.390625 -10.703125l-8.203125 -3.59375q-17.203125 -7.609375 -26.90625 -17.5q-9.6875 -9.90625 -9.6875 -26.3125q0 -11.796875 6.09375 -20.390625q6.09375 -8.609375 17.0 -13.203125q10.90625 -4.59375 25.5 -4.59375q10.59375 0 20.09375 2.796875q9.5 2.796875 16.5 7.59375l-1.1875 24.0l-2.0 0l-8.203125 -15.0q-3.40625 -7.0 -6.8125 -9.890625q-3.390625 -2.90625 -7.796875 -4.109375q-2.59375 -0.796875 -4.796875 -1.09375q-2.203125 -0.296875 -5.59375 -0.296875q-10.203125 0 -17.203125 5.90625q-7.0 5.890625 -7.0 15.890625q0 10.203125 5.390625 16.296875q5.40625 6.09375 15.8125 10.90625l9.203125 4.0q19.1875 8.390625 27.59375 17.890625q8.40625 9.5 8.40625 24.5q0 17.609375 -13.3125 28.703125q-13.296875 11.09375 -37.6875 11.09375z" fill-rule="nonzero"/><path fill="#2c3236" d="m116.250984 215.0326l285.86456 0l0 40.600952l-285.86456 0z" fill-rule="evenodd"/><path fill="#2c3236" d="m116.250984 211.51697l285.86456 0l0 44.116577l-285.86456 0z" fill-rule="evenodd"/><path fill="#2c3236" d="m131.16798 223.07349l136.14912 0l0 21.0l-136.14912 0z" fill-rule="evenodd"/><path fill="#ffffff" d="m187.94998 239.85411q-1.703125 0 -2.765625 -0.453125q-1.046875 -0.46875 -1.578125 -1.28125q-0.53125 -0.8125 -0.625 -1.84375l1.359375 0q0.046875 0.84375 0.546875 1.359375q0.515625 0.5 1.328125 0.75q0.828125 0.234375 1.8125 0.234375q1.453125 0 2.296875 -0.5q0.859375 -0.515625 0.859375 -1.53125q0 -0.59375 -0.421875 -0.96875q-0.421875 -0.375 -1.125 -0.609375q-0.703125 -0.25 -1.546875 -0.453125q-0.828125 -0.203125 -1.671875 -0.421875q-0.828125 -0.234375 -1.53125 -0.578125q-0.703125 -0.34375 -1.125 -0.890625q-0.421875 -0.546875 -0.421875 -1.390625q0 -1.40625 1.078125 -2.28125q1.078125 -0.890625 3.234375 -0.890625q1.515625 0 2.5 0.46875q1.0 0.453125 1.484375 1.203125q0.5 0.734375 0.546875 1.609375l-1.328125 0q-0.109375 -0.875 -0.875 -1.46875q-0.75 -0.59375 -2.328125 -0.59375q-0.96875 0 -1.578125 0.1875q-0.609375 0.1875 -0.9375 0.5q-0.3125 0.296875 -0.421875 0.625q-0.109375 0.328125 -0.109375 0.625q0 0.5625 0.421875 0.921875q0.421875 0.359375 1.125 0.59375q0.703125 0.234375 1.546875 0.421875q0.84375 0.1875 1.6875 0.421875q0.84375 0.234375 1.546875 0.59375q0.703125 0.359375 1.125 0.921875q0.421875 0.546875 0.421875 1.40625q0 1.59375 -1.21875 2.453125q-1.203125 0.859375 -3.3125 0.859375zm10.238235 -0.140625l0 -11.46875l1.296875 0l0 11.46875l-1.296875 0zm6.4382324 0l4.875 -11.46875l1.625 0l4.875 11.46875l-1.4375 0l-1.40625 -3.328125l-5.6875 0l-1.40625 3.328125l-1.4375 0zm3.34375 -4.515625l4.6875 0l-2.34375 -5.609375l-2.34375 5.609375z" fill-rule="nonzero"/><path fill="#000000" fill-opacity="0.0" d="m143.05397 311.2905l213.88976 0l0 12.818909l-213.88976 0z" fill-rule="evenodd"/><path fill="#ffffff" d="m216.8583 321.53183q-1.03125 0 -1.6875 -0.265625q-0.640625 -0.28125 -0.96875 -0.78125q-0.3125 -0.5 -0.359375 -1.125l0.8125 0q0.046875 0.5 0.34375 0.8125q0.3125 0.3125 0.8125 0.46875q0.5 0.140625 1.109375 0.140625q0.890625 0 1.40625 -0.3125q0.515625 -0.3125 0.515625 -0.921875q0 -0.375 -0.265625 -0.59375q-0.25 -0.234375 -0.6875 -0.375q-0.421875 -0.15625 -0.9375 -0.265625q-0.5 -0.125 -1.015625 -0.265625q-0.515625 -0.140625 -0.953125 -0.34375q-0.421875 -0.21875 -0.6875 -0.546875q-0.25 -0.34375 -0.25 -0.859375q0 -0.859375 0.65625 -1.390625q0.671875 -0.546875 1.984375 -0.546875q0.921875 0 1.53125 0.28125q0.609375 0.28125 0.90625 0.75q0.296875 0.453125 0.328125 0.96875l-0.8125 0q-0.0625 -0.515625 -0.53125 -0.875q-0.46875 -0.375 -1.421875 -0.375q-0.59375 0 -0.96875 0.125q-0.375 0.109375 -0.578125 0.296875q-0.1875 0.171875 -0.25 0.375q-0.0625 0.203125 -0.0625 0.390625q0 0.34375 0.25 0.5625q0.265625 0.21875 0.6875 0.359375q0.4375 0.140625 0.953125 0.265625q0.515625 0.109375 1.03125 0.25q0.515625 0.140625 0.9375 0.359375q0.421875 0.21875 0.6875 0.5625q0.265625 0.328125 0.265625 0.859375q0 0.96875 -0.75 1.5q-0.734375 0.515625 -2.03125 0.515625zm9.368088 0q-0.796875 0 -1.453125 -0.265625q-0.65625 -0.28125 -1.125 -0.765625q-0.46875 -0.5 -0.734375 -1.15625q-0.25 -0.65625 -0.25 -1.390625q0 -0.75 0.25 -1.390625q0.265625 -0.65625 0.734375 -1.140625q0.46875 -0.5 1.125 -0.78125q0.65625 -0.28125 1.453125 -0.28125q0.796875 0 1.453125 0.28125q0.65625 0.28125 1.125 0.78125q0.46875 0.484375 0.71875 1.140625q0.25 0.640625 0.25 1.390625q0 0.734375 -0.25 1.390625q-0.25 0.65625 -0.71875 1.15625q-0.46875 0.484375 -1.125 0.765625q-0.65625 0.265625 -1.453125 0.265625zm0 -0.765625q0.859375 0 1.46875 -0.375q0.625 -0.375 0.953125 -1.015625q0.34375 -0.640625 0.34375 -1.421875q0 -0.796875 -0.34375 -1.421875q-0.328125 -0.640625 -0.953125 -1.015625q-0.609375 -0.375 -1.46875 -0.375q-0.84375 0 -1.46875 0.375q-0.625 0.375 -0.96875 1.015625q-0.328125 0.625 -0.328125 1.421875q0 0.78125 0.328125 1.421875q0.34375 0.640625 0.96875 1.015625q0.625 0.375 1.46875 0.375zm7.0773926 0.6875l0 -7.0l5.046875 0l0 0.765625l-4.25 0l0 2.421875l3.796875 0l0 0.78125l-3.796875 0l0 3.03125l-0.796875 0zm10.154587 0l0 -6.25l-2.453125 0l0 -0.75l5.6875 0l0 0.75l-2.4375 0l0 6.25l-0.796875 0zm7.9172974 0l-2.1875 -7.0l0.84375 0l1.796875 5.875l1.875 -5.875l0.90625 0l1.890625 5.875l1.796875 -5.875l0.828125 0l-2.171875 7.0l-0.90625 0l-1.890625 -5.875l-1.890625 5.875l-0.890625 0zm10.137024 0l2.96875 -7.0l1.0 0l2.96875 7.0l-0.875 0l-0.859375 -2.03125l-3.46875 0l-0.859375 2.03125l-0.875 0zm2.046875 -2.765625l2.84375 0l-1.421875 -3.40625l-1.421875 3.40625zm8.03714 2.765625l0 -7.0l3.34375 0q1.09375 0 1.71875 0.59375q0.640625 0.59375 0.640625 1.59375q0 0.671875 -0.265625 1.078125q-0.25 0.40625 -0.640625 0.609375q-0.390625 0.203125 -0.78125 0.296875l1.84375 2.828125l-0.9375 0l-1.703125 -2.6875l-2.421875 0l0 2.6875l-0.796875 0zm0.796875 -3.4375l2.421875 0q0.375 0 0.765625 -0.109375q0.390625 -0.125 0.65625 -0.421875q0.28125 -0.3125 0.28125 -0.84375q0 -0.671875 -0.46875 -1.046875q-0.453125 -0.390625 -1.203125 -0.390625l-2.453125 0l0 2.8125zm8.533051 3.4375l0 -7.0l5.15625 0l0 0.765625l-4.359375 0l0 2.34375l3.890625 0l0 0.765625l-3.890625 0l0 2.359375l4.359375 0l0 0.765625l-5.15625 0z" fill-rule="nonzero"/><path fill="#000000" fill-opacity="0.0" d="m224.15749 224.49606l177.95274 0l0 21.007874l-177.95274 0z" fill-rule="evenodd"/><path fill="#ffffff" d="m269.68915 241.27669q-1.703125 0 -2.765625 -0.453125q-1.046875 -0.46875 -1.578125 -1.28125q-0.53125 -0.8125 -0.625 -1.84375l1.359375 0q0.046875 0.84375 0.546875 1.359375q0.515625 0.5 1.328125 0.75q0.828125 0.234375 1.8125 0.234375q1.453125 0 2.296875 -0.5q0.859375 -0.515625 0.859375 -1.53125q0 -0.59375 -0.421875 -0.96875q-0.421875 -0.375 -1.125 -0.609375q-0.703125 -0.25 -1.546875 -0.453125q-0.828125 -0.203125 -1.671875 -0.421875q-0.828125 -0.234375 -1.53125 -0.578125q-0.703125 -0.34375 -1.125 -0.890625q-0.421875 -0.546875 -0.421875 -1.390625q0 -1.40625 1.078125 -2.28125q1.078125 -0.890625 3.234375 -0.890625q1.515625 0 2.5 0.46875q1.0 0.453125 1.484375 1.203125q0.5 0.734375 0.546875 1.609375l-1.328125 0q-0.109375 -0.875 -0.875 -1.46875q-0.75 -0.59375 -2.328125 -0.59375q-0.96875 0 -1.578125 0.1875q-0.609375 0.1875 -0.9375 0.5q-0.3125 0.296875 -0.421875 0.625q-0.109375 0.328125 -0.109375 0.625q0 0.5625 0.421875 0.921875q0.421875 0.359375 1.125 0.59375q0.703125 0.234375 1.546875 0.421875q0.84375 0.1875 1.6875 0.421875q0.84375 0.234375 1.546875 0.59375q0.703125 0.359375 1.125 0.921875q0.421875 0.546875 0.421875 1.40625q0 1.59375 -1.21875 2.453125q-1.203125 0.859375 -3.3125 0.859375zm14.972595 0q-1.421875 0 -2.53125 -0.625q-1.09375 -0.640625 -1.71875 -1.78125q-0.625 -1.140625 -0.625 -2.671875l0 -6.53125l1.296875 0l0 6.5625q0 1.34375 0.515625 2.171875q0.515625 0.828125 1.328125 1.21875q0.828125 0.390625 1.734375 0.390625q0.90625 0 1.71875 -0.390625q0.828125 -0.390625 1.34375 -1.21875q0.515625 -0.828125 0.515625 -2.171875l0 -6.5625l1.296875 0l0 6.53125q0 1.5 -0.625 2.65625q-0.625 1.140625 -1.71875 1.78125q-1.09375 0.640625 -2.53125 0.640625zm11.242065 -0.140625l0 -11.46875l5.140625 0q1.359375 0 2.140625 0.46875q0.796875 0.46875 1.140625 1.171875q0.34375 0.703125 0.34375 1.390625q0 1.109375 -0.46875 1.703125q-0.46875 0.59375 -1.078125 0.875q0.484375 0.15625 0.984375 0.5q0.5 0.328125 0.828125 0.90625q0.328125 0.578125 0.328125 1.4375q0 1.28125 -0.984375 2.15625q-0.984375 0.859375 -2.9375 0.859375l-5.4375 0zm1.296875 -6.34375l3.84375 0q0.609375 0 1.140625 -0.203125q0.53125 -0.21875 0.859375 -0.65625q0.328125 -0.4375 0.328125 -1.125q0 -0.484375 -0.21875 -0.921875q-0.21875 -0.4375 -0.703125 -0.703125q-0.46875 -0.28125 -1.265625 -0.28125l-3.984375 0l0 3.890625zm0 5.109375l4.28125 0q1.171875 0 1.828125 -0.484375q0.65625 -0.5 0.65625 -1.40625q0 -0.8125 -0.625 -1.421875q-0.625 -0.609375 -2.0 -0.609375l-4.140625 0l0 3.921875zm13.865143 1.234375l0 -11.46875l8.4375 0l0 1.25l-7.140625 0l0 3.84375l6.375 0l0 1.265625l-6.375 0l0 3.859375l7.140625 0l0 1.25l-8.4375 0zm14.226318 0l0 -11.46875l1.296875 0l0 10.21875l6.25 0l0 1.25l-7.546875 0zm12.020477 0l0 -1.234375l7.484375 -9.03125l-7.375 0l0 -1.203125l8.96875 0l0 1.25l-7.484375 9.0l7.484375 0l0 1.21875l-9.078125 0zm13.3573 0l4.875 -11.46875l1.625 0l4.875 11.46875l-1.4375 0l-1.40625 -3.328125l-5.6875 0l-1.40625 3.328125l-1.4375 0zm3.34375 -4.515625l4.6875 0l-2.34375 -5.609375l-2.34375 5.609375z" fill-rule="nonzero"/></g></svg>