<svg width="762" height="468" viewBox="0 0 762 468" fill="none" xmlns="http://www.w3.org/2000/svg">
<path d="M213.239 392C193.892 392 174.188 389.67 154.126 385.009C134.065 380.375 117.356 374.259 104 366.661L106.638 296.302H111.915L128.28 329.925C133.199 339.598 138.476 348.138 144.109 355.547C149.743 362.956 157.479 368.736 167.318 372.885C174.353 376.333 181.127 378.664 187.64 379.876C194.153 381.062 201.45 381.654 209.529 381.654C230.993 381.654 247.962 375.969 260.439 364.6C272.943 353.23 279.195 338.574 279.195 320.63C279.195 303.738 274.963 290.55 266.499 281.066C258.062 271.582 244.527 262.355 225.895 253.383L204.253 244.088C173.996 230.967 150.334 215.88 133.268 198.825C116.229 181.744 107.71 159.059 107.71 130.77C107.71 110.428 113.069 92.8487 123.787 78.0305C134.505 63.1854 149.455 51.8024 168.637 43.8815C187.819 35.9605 210.244 32 235.912 32C254.544 32 272.215 34.4113 288.924 39.2339C305.633 44.0566 320.143 50.6035 332.455 58.8747L329.322 120.949H324.045L302.403 82.1527C296.413 70.0826 290.421 61.5555 284.431 56.5712C278.467 51.5599 271.61 48.0171 263.861 45.9425C259.299 44.5685 255.08 43.6255 251.205 43.1136C247.33 42.6017 242.411 42.3458 236.448 42.3458C218.502 42.3458 203.374 47.4378 191.062 57.6219C178.75 67.7791 172.594 81.4791 172.594 98.722C172.594 116.315 177.335 130.366 186.816 140.873C196.324 151.38 210.23 160.783 228.533 169.081L252.813 179.427C286.56 193.895 310.827 209.319 325.612 225.7C340.397 242.081 347.789 263.203 347.789 289.068C347.789 319.432 336.082 344.178 312.668 363.307C289.281 382.436 256.138 392 213.239 392ZM484.45 392C465.103 392 445.399 389.67 425.337 385.009C405.276 380.375 388.567 374.259 375.211 366.661L377.849 296.302H383.125L399.491 329.925C404.41 339.598 409.686 348.138 415.32 355.547C420.954 362.956 428.69 368.736 438.528 372.885C445.564 376.333 452.338 378.664 458.851 379.876C465.364 381.062 472.66 381.654 480.74 381.654C502.203 381.654 519.173 375.969 531.65 364.6C544.154 353.23 550.406 338.574 550.406 320.63C550.406 303.738 546.174 290.55 537.709 281.066C529.273 271.582 515.738 262.355 497.105 253.383L475.464 244.088C445.206 230.967 421.545 215.88 404.479 198.825C387.44 181.744 378.921 159.059 378.921 130.77C378.921 110.428 384.28 92.8487 394.997 78.0305C405.715 63.1854 420.665 51.8024 439.847 43.8815C459.03 35.9605 481.455 32 507.122 32C525.755 32 543.426 34.4113 560.134 39.2339C576.843 44.0566 591.354 50.6035 603.665 58.8747L600.532 120.949H595.256L573.614 82.1527C567.623 70.0826 561.632 61.5555 555.641 56.5712C549.678 51.5599 542.821 48.0171 535.071 45.9425C530.509 44.5685 526.291 43.6255 522.416 43.1136C518.541 42.6017 513.622 42.3458 507.658 42.3458C489.713 42.3458 474.584 47.4378 462.272 57.6219C449.961 67.7791 443.805 81.4791 443.805 98.722C443.805 116.315 448.545 130.366 458.026 140.873C467.535 151.38 481.441 160.783 499.744 169.081L524.024 179.427C557.771 193.895 582.037 209.319 596.822 225.7C611.607 242.081 619 263.203 619 289.068C619 319.432 607.293 344.178 583.879 363.307C560.492 382.436 527.349 392 484.45 392Z" fill="white"/>
<path fill-rule="evenodd" clip-rule="evenodd" d="M8 183H762V288H8V183Z" fill="#1E2326"/>
<path fill-rule="evenodd" clip-rule="evenodd" d="M8 174H762V288H8V174Z" fill="#1E2326"/>
<path fill-rule="evenodd" clip-rule="evenodd" d="M48 204H407V258H48V204Z" fill="#1E2326"/>
<path d="M197.091 248C194.1 248 191.671 247.602 189.805 246.805C187.966 245.98 186.58 244.853 185.647 243.424C184.714 241.995 184.165 240.374 184 238.56H187.582C187.664 240.044 188.144 241.239 189.022 242.146C189.928 243.026 191.095 243.685 192.522 244.125C193.976 244.537 195.568 244.743 197.297 244.743C199.85 244.743 201.867 244.304 203.349 243.424C204.858 242.517 205.613 241.171 205.613 239.384C205.613 238.34 205.243 237.488 204.502 236.828C203.761 236.169 202.773 235.633 201.538 235.221C200.303 234.781 198.944 234.383 197.462 234.025C196.007 233.668 194.539 233.297 193.057 232.912C191.602 232.5 190.258 231.992 189.022 231.387C187.787 230.782 186.799 229.999 186.058 229.037C185.317 228.075 184.947 226.852 184.947 225.368C184.947 222.895 185.894 220.889 187.787 219.35C189.681 217.783 192.522 217 196.309 217C198.971 217 201.167 217.412 202.896 218.237C204.653 219.034 205.956 220.092 206.807 221.411C207.685 222.703 208.166 224.118 208.248 225.657H204.749C204.557 224.118 203.788 222.826 202.443 221.782C201.126 220.738 199.081 220.215 196.309 220.215C194.608 220.215 193.222 220.38 192.151 220.71C191.081 221.04 190.258 221.48 189.681 222.029C189.132 222.551 188.762 223.101 188.57 223.678C188.378 224.255 188.281 224.805 188.281 225.327C188.281 226.316 188.652 227.127 189.393 227.759C190.134 228.391 191.122 228.914 192.357 229.326C193.592 229.738 194.951 230.109 196.433 230.439C197.915 230.769 199.397 231.14 200.879 231.552C202.361 231.964 203.719 232.486 204.954 233.118C206.19 233.75 207.178 234.561 207.919 235.551C208.66 236.512 209.03 237.749 209.03 239.261C209.03 242.064 207.96 244.221 205.819 245.733C203.706 247.244 200.797 248 197.091 248ZM224.067 247.629V217.371H227.484V247.629H224.067ZM241.03 247.629L253.874 217.371H258.156L271 247.629H267.213L263.507 238.848H248.522L244.817 247.629H241.03ZM249.84 235.715H262.19L256.015 220.916L249.84 235.715Z" fill="white"/>
<path d="M273.931 459C272.123 459 270.644 458.765 269.493 458.296C268.37 457.8 267.521 457.11 266.945 456.227C266.397 455.344 266.082 454.35 266 453.246H268.137C268.219 454.129 268.521 454.847 269.041 455.399C269.589 455.951 270.301 456.365 271.178 456.641C272.055 456.889 273.027 457.013 274.096 457.013C275.657 457.013 276.89 456.737 277.794 456.185C278.699 455.633 279.151 454.819 279.151 453.743C279.151 453.081 278.918 452.556 278.452 452.17C278.014 451.756 277.411 451.425 276.644 451.176C275.904 450.901 275.082 450.666 274.178 450.473C273.301 450.252 272.411 450.017 271.507 449.769C270.603 449.521 269.767 449.217 269 448.858C268.26 448.472 267.658 447.989 267.192 447.41C266.753 446.802 266.534 446.044 266.534 445.133C266.534 443.615 267.11 442.387 268.26 441.449C269.438 440.483 271.178 440 273.479 440C275.096 440 276.438 440.248 277.507 440.745C278.575 441.242 279.37 441.904 279.89 442.732C280.411 443.532 280.699 444.388 280.753 445.298H278.616C278.507 444.388 278.041 443.615 277.219 442.98C276.397 442.318 275.151 441.987 273.479 441.987C272.438 441.987 271.589 442.097 270.931 442.318C270.274 442.511 269.767 442.773 269.411 443.105C269.082 443.408 268.863 443.739 268.753 444.098C268.644 444.457 268.589 444.802 268.589 445.133C268.589 445.74 268.808 446.237 269.247 446.623C269.712 447.009 270.315 447.327 271.055 447.575C271.822 447.824 272.657 448.058 273.562 448.279C274.466 448.472 275.37 448.693 276.274 448.941C277.178 449.19 278 449.507 278.74 449.893C279.479 450.28 280.082 450.776 280.548 451.383C281.014 451.963 281.246 452.722 281.246 453.66C281.246 455.371 280.589 456.696 279.274 457.634C277.986 458.545 276.205 459 273.931 459ZM298.571 459C297.173 459 295.899 458.765 294.749 458.296C293.598 457.8 292.612 457.123 291.79 456.268C290.968 455.385 290.324 454.364 289.858 453.205C289.42 452.046 289.201 450.818 289.201 449.521C289.201 448.196 289.42 446.968 289.858 445.837C290.324 444.678 290.968 443.67 291.79 442.815C292.612 441.932 293.598 441.242 294.749 440.745C295.899 440.248 297.173 440 298.571 440C299.968 440 301.242 440.248 302.392 440.745C303.543 441.242 304.529 441.932 305.351 442.815C306.173 443.67 306.803 444.678 307.242 445.837C307.68 446.968 307.899 448.196 307.899 449.521C307.899 450.818 307.68 452.046 307.242 453.205C306.803 454.364 306.173 455.385 305.351 456.268C304.529 457.123 303.543 457.8 302.392 458.296C301.242 458.765 299.968 459 298.571 459ZM298.571 456.972C300.077 456.972 301.365 456.641 302.434 455.978C303.529 455.316 304.365 454.419 304.94 453.288C305.543 452.156 305.844 450.901 305.844 449.521C305.844 448.113 305.543 446.858 304.94 445.754C304.365 444.622 303.529 443.725 302.434 443.063C301.365 442.401 300.077 442.07 298.571 442.07C297.091 442.07 295.803 442.401 294.708 443.063C293.612 443.725 292.762 444.622 292.16 445.754C291.584 446.858 291.297 448.113 291.297 449.521C291.297 450.901 291.584 452.156 292.16 453.288C292.762 454.419 293.612 455.316 294.708 455.978C295.803 456.641 297.091 456.972 298.571 456.972ZM317.185 458.793V440.248H330.459V442.277H319.281V448.693H329.267V450.763H319.281V458.793H317.185ZM343.893 458.793V442.235H337.441V440.248H352.399V442.235H345.989V458.793H343.893ZM364.716 458.793L358.963 440.248H361.182L365.908 455.813L370.839 440.248H373.223L378.195 455.813L382.921 440.248H385.099L379.387 458.793H377.004L372.031 443.229L367.059 458.793H364.716ZM391.378 458.793L399.186 440.248H401.816L409.624 458.793H407.323L405.062 453.412H395.939L393.679 458.793H391.378ZM396.761 451.466H404.24L400.501 442.442L396.761 451.466ZM417.9 458.793V440.248H426.694C428.612 440.248 430.119 440.773 431.215 441.821C432.338 442.87 432.9 444.277 432.9 446.044C432.9 447.23 432.667 448.182 432.201 448.9C431.763 449.617 431.201 450.155 430.516 450.514C429.831 450.873 429.146 451.135 428.461 451.301L433.311 458.793H430.845L426.365 451.673H419.996V458.793H417.9ZM419.996 449.686H426.365C427.023 449.686 427.694 449.59 428.379 449.397C429.064 449.176 429.639 448.803 430.105 448.279C430.598 447.727 430.845 446.982 430.845 446.044C430.845 444.857 430.434 443.932 429.612 443.27C428.817 442.58 427.763 442.235 426.448 442.235H419.996V449.686ZM442.438 458.793V440.248H456V442.277H444.534V448.486H454.767V450.514H444.534V456.765H456V458.793H442.438Z" fill="white"/>
<path d="M413.07 251C410.083 251 407.658 250.614 405.795 249.843C403.959 249.045 402.576 247.955 401.644 246.572C400.712 245.189 400.164 243.62 400 241.864H403.576C403.658 243.301 404.137 244.457 405.014 245.335C405.918 246.186 407.083 246.824 408.508 247.25C409.96 247.649 411.549 247.848 413.275 247.848C415.823 247.848 417.837 247.423 419.317 246.572C420.824 245.694 421.577 244.391 421.577 242.662C421.577 241.652 421.207 240.827 420.468 240.189C419.728 239.551 418.741 239.032 417.508 238.633C416.275 238.207 414.919 237.822 413.44 237.476C411.987 237.13 410.522 236.771 409.042 236.399C407.59 236 406.247 235.508 405.014 234.923C403.781 234.338 402.795 233.58 402.055 232.649C401.315 231.718 400.945 230.535 400.945 229.098C400.945 226.705 401.891 224.763 403.781 223.274C405.672 221.758 408.508 221 412.289 221C414.947 221 417.139 221.399 418.865 222.197C420.618 222.968 421.92 223.992 422.769 225.269C423.646 226.519 424.125 227.888 424.208 229.378H420.714C420.522 227.888 419.755 226.638 418.413 225.628C417.097 224.617 415.056 224.112 412.289 224.112C410.59 224.112 409.206 224.271 408.138 224.59C407.069 224.91 406.247 225.335 405.672 225.867C405.124 226.372 404.754 226.904 404.562 227.463C404.37 228.021 404.274 228.553 404.274 229.059C404.274 230.016 404.644 230.801 405.384 231.412C406.124 232.024 407.11 232.529 408.343 232.928C409.576 233.327 410.932 233.686 412.412 234.005C413.892 234.324 415.371 234.684 416.851 235.082C418.33 235.481 419.687 235.987 420.92 236.598C422.153 237.21 423.139 237.995 423.879 238.952C424.619 239.883 424.989 241.08 424.989 242.543C424.989 245.255 423.92 247.343 421.783 248.806C419.673 250.269 416.769 251 413.07 251ZM452.453 251C449.96 251 447.74 250.468 445.795 249.404C443.877 248.314 442.37 246.798 441.274 244.856C440.178 242.915 439.63 240.641 439.63 238.035V221.359H443.041V238.114C443.041 240.402 443.493 242.25 444.398 243.66C445.302 245.069 446.466 246.106 447.891 246.771C449.343 247.436 450.864 247.769 452.453 247.769C454.042 247.769 455.549 247.436 456.974 246.771C458.426 246.106 459.605 245.069 460.509 243.66C461.413 242.25 461.865 240.402 461.865 238.114V221.359H465.276V238.035C465.276 240.588 464.728 242.848 463.632 244.816C462.536 246.758 461.029 248.274 459.111 249.364C457.193 250.455 454.974 251 452.453 251ZM482.024 250.641V221.359H495.546C497.93 221.359 499.807 221.758 501.176 222.556C502.574 223.354 503.574 224.351 504.177 225.548C504.78 226.745 505.081 227.928 505.081 229.098C505.081 230.987 504.67 232.436 503.848 233.447C503.026 234.457 502.081 235.202 501.012 235.681C501.861 235.947 502.725 236.372 503.601 236.957C504.478 237.516 505.204 238.287 505.78 239.271C506.355 240.255 506.643 241.479 506.643 242.941C506.643 245.122 505.78 246.957 504.053 248.447C502.327 249.91 499.752 250.641 496.327 250.641H482.024ZM485.435 234.444H495.546C496.614 234.444 497.615 234.271 498.546 233.926C499.478 233.553 500.231 232.995 500.807 232.25C501.382 231.505 501.67 230.548 501.67 229.378C501.67 228.553 501.478 227.769 501.094 227.024C500.711 226.279 500.094 225.681 499.245 225.229C498.423 224.75 497.313 224.511 495.916 224.511H485.435V234.444ZM485.435 247.489H496.697C498.752 247.489 500.354 247.077 501.505 246.253C502.656 245.402 503.231 244.205 503.231 242.662C503.231 241.279 502.683 240.069 501.587 239.032C500.491 237.995 498.738 237.476 496.327 237.476H485.435V247.489ZM521.906 250.641V221.359H544.1V224.551H525.317V234.364H542.086V237.596H525.317V247.449H544.1V250.641H521.906ZM559.326 250.641V221.359H562.738V247.449H579.178V250.641H559.326ZM590.945 250.641V247.489L610.631 224.431H591.232V221.359H614.824V224.551L595.137 247.529H614.824V250.641H590.945ZM626.079 250.641L638.903 221.359H643.177L656 250.641H652.219L648.52 242.144H633.56L629.861 250.641H626.079ZM634.875 239.112H647.205L641.04 224.79L634.875 239.112Z" fill="white"/>
<mask id="mask0_15_3298" style="mask-type:alpha" maskUnits="userSpaceOnUse" x="0" y="0" width="755" height="468">
<path d="M0 0H755V468H0V0Z" fill="#D9D9D9"/>
</mask>
<g mask="url(#mask0_15_3298)">
</g>
</svg>
